<?xml version="1.0" encoding="UTF-8"?>
<svg version="1.1" viewBox="0 0 2048 2048" width="512" height="512" xmlns="http://www.w3.org/2000/svg">
<path transform="translate(1194)" d="m0 0h581l27 9 16 8 12 8 13 11 8 8 12 16 10 19 7 21 3 16 1 23v233l-1 40-5 23-6 16-9 17-9 12-11 12-10 9-10 7-12 7-20 8-16 4-25 2h-65v130l47 1 28 1 23 3 23 6 22 9 17 9 16 11 11 9 10 9 9 9 11 14 9 13 9 16 8 18 6 18 5 24 9 64 14 101 28 203 20 144 13 94 7 48 8 55 5 36 4 26 1 3v274l-8 31-7 20-8 17-13 21-10 12-8 10-8 7-11 10-17 12-17 10-21 9-21 7-20 5h-1711l-35-10-20-8-17-9-12-8-13-10-11-10-12-12-11-14-10-15-7-12-8-18-8-26-4-15v-280l4-22 12-86 11-78 11-81 13-93 10-74 26-186 10-74 9-64 4-25 5-19 6-17 9-19 12-19 10-13 9-10 13-13 20-15 15-9 16-8 19-7 19-5 15-3 11-1 72-1 1-42v-87l-197-1-1-1v-172l4-20 6-15 8-14 7-9 13-13 14-9 10-5 16-5 18-2h536l18 2 17 5 15 8 13 10 10 10 9 13 8 16 4 14 2 20v299l395-1 1-130h-55l-31-2-12-2-16-5-19-9-16-11-15-14-9-11-10-15-7-15-5-15-4-20-1-10v-277l2-11 3-16 4-12 7-16 9-14 7-9 10-11 8-7 14-10 17-9 18-6z" fill="#76738C"/>
<path transform="translate(0,1617)" d="m0 0h211l1837 1v259l-8 31-7 20-8 17-13 21-10 12-8 10-8 7-11 10-17 12-17 10-21 9-21 7-20 5h-1711l-35-10-20-8-17-9-12-8-13-10-11-10-12-12-11-14-10-15-7-12-8-18-8-26-4-15z" fill="#C9C8CB"/>
<path transform="translate(260,264)" d="m0 0h536l18 2 17 5 15 8 13 10 10 10 9 13 8 16 4 14 2 20 1 300v262h43l33 1 12 3 15 8 11 9 10 15 5 12 1 5 1 14v137l-3 15-5 12-6 9-5 6-12 9-12 6-6 2-8 1-675 1-15-3-12-5-10-7-11-11-8-16-3-10-1-8-1-59v-65l1-27 4-13 6-11 9-10 8-7 8-5 13-5 11-2 71-1-1-265 1-42v-87l-197-1-1-1v-172l4-20 6-15 8-14 7-9 13-13 14-9 10-5 16-5z" fill="#DAD5D0"/>
<path transform="translate(289,660)" d="m0 0h72l1 3v261l-12 1-59 1-14 3-12 5-11 8-9 9-7 11-4 11-1 5-1 27v65l1 59 3 16 8 16 7 8 9 8 14 7 11 3 7 1 20 1 2 5 6 30 7 27 7 20 6 15 7 15 10 19 11 18 12 17 11 14 12 13v2l3 1 7 8 14 13 9 7 16 12 15 10 25 14 29 13 30 10 19 5 22 4 17 2 15 1 78 2 89 1h194l172-1h207l663-1 4 4 8 57 6 42 3 15v15h-1837l-211-1v-16l4-22 12-86 11-78 11-81 13-93 10-74 26-186 10-74 9-64 4-25 5-19 6-17 9-19 12-19 10-13 9-10 13-13 20-15 15-9 16-8 19-7 19-5 15-3z" fill="#5C5D7E"/>
<path transform="translate(1194)" d="m0 0h581l27 9 16 8 12 8 13 11 8 8 12 16 10 19 7 21 3 16 1 23v233l-1 40-5 23-6 16-9 17-9 12-11 12-10 9-10 7-12 7-20 8-16 4-25 2h-65v100h-1l-1-99-270-1h-89l-36 1h-55l-31-2-12-2-16-5-19-9-16-11-15-14-9-11-10-15-7-15-5-15-4-20-1-10v-277l2-11 3-16 4-12 7-16 9-14 7-9 10-11 8-7 14-10 17-9 18-6z" fill="#94F0DC"/>
<path transform="translate(0,1617)" d="m0 0h211v1l-47 1v113l1 50 3 28 4 16 5 12 8 15 10 14 12 13 13 11 15 9 14 6 16 5 10 2 14 1 28 1h1033l449 1h125l107-1 5 1-1 7-8 18-8 14-8 12-13 16-4 5-8 7-11 10-17 12-17 10-21 9-21 7-20 5h-1711l-35-10-20-8-17-9-12-8-13-10-11-10-12-12-11-14-10-15-7-12-8-18-8-26-4-15z" fill="#ADACB9"/>
<path transform="translate(260,264)" d="m0 0h536l18 2 17 5 15 8 13 10 10 10 9 13 8 16 4 14 1 6v512l-4 1-31-4-32-5-24-6-27-9-35-15-9-5-12-6v-1l18-2 12-4 10-6 5-4 7-10 5-11 1-4v-18l-5-15-9-12-5-4-14-7-9-2h-13l-12 3-9 5-10 9-6 9-4 11-1 5v16l3 9-1 4-4-2v-2h-2v-2l-4-2-27-27-7-8-1-3h-2l-4-5v-2l-4-2v-2h-2l-1-4-5-1-1 5-3 1-2 4h-2l-2 4h-2l-2 4h-2v2h-2v2h-2l-2 4h-2l-2 4h-2l-2 4h-2l-2 4h-2l-2 4h-2l-2 4h-2l-2 4h-2l-2 4h-2v2h-2v2h-2v2h-2v2l-6 3-7 6-8 3-4-1 14-7 7-7 8-7 54-54 7-8 82-82h2l2-4h2v-2h2v-2l8-7 23-23 9-11 5-11v-12l-4-11-9-10-10-5-4-1h-10l-9 3-9 6-15 14-2 3h-2l-2 4-92 92-3 2h-3l-8-23-8-26-2-7-4 3h-2v2l-4 2 2-4 6-5 7-11 4-11 1-3v-17l-4-12-6-10-8-9v-2h2l-1-88-1-154-10-2h-10l-18-1-69-1-46-2-57-1-23 1-9 2-1 2 4 4 13 10 4 7-1 2-11-9-14-9-12-6-18-5-7-1h-26l-11 1-9 3-4-1 14-5 10-2zm272 529h2v2h-10v-1z" fill="#FBFBFB"/>
<path transform="translate(350,924)" d="m0 0 12 1 1 1 1 76 1 53 34 1h475l17-1 1-130 10-1h34l33 1 12 3 15 8 11 9 10 15 5 12 1 5 1 14v137l-3 15-5 12-6 9-5 6-12 9-12 6-6 2-8 1-675 1-15-3-12-5-10-7-11-11-8-16-3-10-1-8-1-59v-65l1-27 4-13 6-11 9-10 8-7 8-5 13-5 11-2z" fill="#65D2CA"/>
<path transform="translate(720,1783)" d="m0 0h602l14 2 16 6 10 6 10 9 9 14 5 14 2 11v10l-4 16-7 14-7 9-5 6-21 14-6 1h-628l-9-2-16-10-9-9-7-11-6-13-3-10v-20l5-16 7-12 9-11 12-9 8-4 14-4z" fill="#94F1DD"/>
<path transform="translate(1194)" d="m0 0h164l-2 2-21 9-16 8-10 7-13 11-11 12-9 13-6 10-7 17-3 9-4 27-1 16v224l1 33 2 21 2 12 4 13 4 10 8 13 9 13 15 16 18 13 19 10 15 6 6 1 37 1v1l-107 2h-55l-31-2-12-2-16-5-19-9-16-11-15-14-9-11-10-15-7-15-5-15-4-20-1-10v-277l2-11 3-16 4-12 7-16 9-14 7-9 10-11 8-7 14-10 17-9 18-6z" fill="#65D1C9"/>
<path transform="translate(248,268)" d="m0 0h26l15 3 15 5 14 8 9 7 9 10 8 9 10 18 5 14 1 7 1 21 1 64v55l-1 39h-189l-3-1-3-4-2 4v-171l4-20 6-15 8-14 7-9 13-13 14-9 6-3 14-3 1-1z" fill="#ADACB9"/>
<path transform="translate(1324,528)" d="m0 0h89l38 1 1 3v53l1 125 2 29 2 13 6 11 9 9v2l4 2 8 7 6 4v2h3v2l-5 1h-105l-32-1-9-1-10-2-9-3v-2l-5-1-6-4v-2l-4-2-2-4h-2l-7-10-4-7-2-7-1-14-1-23v-43l1-5h-2v-132z" fill="#5C5D7E"/>
<path transform="translate(722,528)" d="m0 0h10l11 4 8 7 6 8 3 9v12l-7 14-16 17-21 21h-2v2h-2v2l-8 7-85 85-7 8-55 55-8 7-8 5-7 2h-12l-10-4-10-9-5-8-2-6v-11l3-10 8-11 83-83 8-7 87-87 7-8 7-7 13-10 6-3z" fill="#DE6A86"/>
<path transform="translate(1711,1023)" d="m0 0h75l11 3 9 6 7 8 4 11v78l-3 9-5 8-7 6-10 4-5 1-67 1-11-2-12-6-6-5-6-12-1-6v-77l4-10 9-10 8-5z" fill="#E093A1"/>
<path transform="translate(1717,1287)" d="m0 0h58l15 1 10 4 8 6 7 11 2 7v75l-3 10-6 10-11 7-7 2-23 1h-47l-12-2-9-4-8-7-5-10-2-10v-74l4-8 9-10 9-6z" fill="#94EFDC"/>
<path transform="translate(1453,1023)" d="m0 0h63l14 2 9 5 5 4 6 9 2 5 1 15v57l-2 14-5 10-8 7-9 4-6 1-67 1-13-2-10-5-7-7-4-8-2-9v-77l5-10 9-9 9-5z" fill="#C9C8CB"/>
<path transform="translate(1189,1023)" d="m0 0h63l14 2 10 6 7 7 4 7 1 5 1 60-1 18-3 10-6 9-9 6-5 2-6 1h-77l-10-4-6-4v-2h-2l-6-10-2-9-1-37v-34l2-11 7-10h2v-2l11-7z" fill="#C9C8CB"/>
<path transform="translate(1448,1288)" d="m0 0h77l9 3 9 6 6 8 3 7 1 15v56l-2 15-5 10-9 8-11 4-47 1h-23l-14-2-8-4-5-4-6-9-2-6-1-7v-76l4-8 9-10 10-6z" fill="#C9C8CB"/>
<path transform="translate(1184,1288)" d="m0 0h77l11 4 10 9 5 8 1 5v78l-4 13-8 9-10 5-5 1-62 1-17-1-9-3-9-7-6-10-2-9-1-34v-37l2-10 5-8 8-8 9-5z" fill="#C9C8CB"/>
<path transform="translate(523,511)" d="m0 0h11l14 4 11 6 7 7 7 11 4 10 1 4v17l-4 12-6 10-6 7-10 7-14 5-4 1h-12l-13-4-10-6-8-7-7-11-5-13v-18l4-13 7-11 7-7 12-7z" fill="#DE6A87"/>
<path transform="translate(720,710)" d="m0 0h13l12 3 14 8 8 9 5 9 4 12v18l-5 13-6 9-4 5-10 7-12 5-9 2-15-1-12-5-13-10-7-10-5-11-1-4v-16l4-14 6-10 9-9 10-6 9-3z" fill="#DE6A86"/>
<path transform="translate(361,683)" d="m0 0h1v241l-12 1h-55v-1h50l-1-3v-9l3-18 1-11 1-7 4-24 2-20 3-8 2-52z" fill="#75728B"/>
<path transform="translate(248,268)" d="m0 0h26l11 2v1l-41 1-4 2h-4v2l-6 1-1 2h-3l-1 3-7 2-4 4-7 5-2 1v2l-4 2-4 4h-2l-1 4-5 4h-2l-2 4-2 1-4 8h-2l-1 6-3 5-2 7-1 2-1 14v36 3l-4 2-1-42 4-20 6-15 8-14 7-9 13-13 14-9 6-3 14-3 1-1z" fill="#D0CFD1"/>
<path transform="translate(359,342)" d="m0 0h1l2 18 1 36v124l-1 9h-197l-1-2 1-6 3 1 1 5 192 1v-110l-1-48z" fill="#CAC9CC"/>
<path transform="translate(1290,534)" d="m0 0 2 1 1 11 1 2v35l-1 4 1 8-1 32v15l-2 11h-2v-117z" fill="#76738C"/>
<path transform="translate(616,720)" d="m0 0 1 4-4 2-2 4h-2l-2 4h-2l-2 4h-2v2h-2v2h-2l-2 4h-2l-2 4h-2l-2 4h-2l-2 4h-2l-2 4h-2l-2 4h-2l-2 4h-2l-2 4h-2v2h-2v2h-2v2h-2v2l-6 3-7 6-8 3-4-1 14-7 7-7 8-7 46-46zm-84 73h2v2h-10v-1z" fill="#F8F8F7"/>
<path transform="translate(168,342)" d="m0 0 2 1-1 14v36 3l-4 2-1-42 2-12z" fill="#CAC9CC"/>
<path transform="translate(362,548)" d="m0 0h2l1 15v75l1 6-2 3-1 12h-1z" fill="#FCFCFC"/>
<path transform="translate(248,268)" d="m0 0h26l11 2v1h-44l1-2z" fill="#CBCACC"/>
<path transform="translate(12,1919)" d="m0 0 3 3 11 23 6 11 2 3-2 1-9-15-8-16-3-7z" fill="#CECDCF"/>
<path transform="translate(560,775)" d="m0 0m-1 1m-1 1m-1 1m-2 1 2 1-7 8-7 4-5 2-4-1 14-7zm-23 14h2v2h-10v-1z" fill="#F1EFED"/>
<path transform="translate(54,1986)" d="m0 0 4 2 7 6v2l4 2 5 5-1 2-13-12-5-5z" fill="#D3D1D1"/>
<path transform="translate(1166,1300)" d="m0 0 1 2-6 9h-2l-1 6h-1v-7l3-5z" fill="#D6D2CE"/>
<path transform="translate(165,453)" d="m0 0h2l-1 7 2 1-1 10v6l-2 1z" fill="#CAC9CC"/>
<path transform="translate(165,521)" d="m0 0 3 1 1 5 4 1v1h-8l-1-2z" fill="#CBCACD"/>
<path transform="translate(24,1945)" d="m0 0 3 1 5 10 2 3-2 1-8-13z" fill="#CFCED1"/>
<path transform="translate(238,267)" d="m0 0m-3 1 3 1-5 3-9 1 2-2z" fill="#FCFCFC"/>
</svg>
