<?xml version="1.0" encoding="UTF-8"?>
<svg version="1.1" viewBox="0 0 2048 2048" width="512" height="512" xmlns="http://www.w3.org/2000/svg">
<path transform="translate(533)" d="m0 0h80l30 7 18 6 14 8 19 12 11 4 14 3 24 6 20 8 14 8 12 9 10 9 9 9 12 17 8 15 7 16 8 26 4 23 3 34 2 26 1 31 16 2 16 5 13 7 12 9 11 11 9 13 8 15 6 19 2 12 1 13-2 22-4 15-5 13-7 13-9 12-13 13-14 9-14 6-15 4-7 1h-15l-13-2-5-1v7l-6 24-8 23-13 27-12 19-12 16-11 12-5 6-8 7-11 10-18 13-15 9-19 10-20 8-19 6-18 4-12 2 19 4 25 5 22 6 28 11 16 7 18 10 19 12 17 13 10 8 13 12 10 9 12 13 9 11 14 19 12 19 7 12 13 28 10 28 7 26 5 31 1 16 1 44v178l528 1v-161h-292l-14-1-13-4-11-6-12-12-8-14-3-12-1-15v-471l2-16 5-12 6-9 5-6 11-8 10-5 8-2 12-1h295v-144h-207l-8-3-6-7-2-12v-148l1-24 4-7 6-4 3-1h358l89-1h92l8 2 6 5 3 8v177l-2 7-4 5-5 3-60 1-98-1h-54l1 144h284l13 2 10 4 11 8 8 8 6 10 5 13 1 7v484l-1 13-5 13-6 10-10 10-10 6-10 4-12 2h-285v161l307-1 78-1h28l26 1 14 4 11 6 10 9 7 8 8 16 2 5v29l-6 14-9 13-7 7-11 7-11 4-11 2-11 1h-46l-1 238h97l7 2 7 6 2 3v102l-8 9-2 1-59 1h-44l1 6-1 330-4 7-4 2-1 3h-1803l-9-9-1-5-1-334-102-1-6-4-4-6v-103l7-7 6-3h100v-239h-55l-16-3-10-4-11-8-7-7-8-12-5-13-1-4v-23l6-15 7-11 8-9 10-7 12-5 7-2 17-1h196l1-218 2-23 5-29 8-29 7-20 8-18 10-20 13-21 14-19 9-11 11-12 7-8 16-15 11-9 17-13 19-12 16-9 21-10 29-11 34-9 21-4 7-2-23-5-36-12-19-9-17-10-13-9-13-10-13-12-14-14-11-14-10-14-12-20-9-19-10-30-5-23v-3l-11 3-7 1h-15l-13-2-15-5-15-8-11-9-11-11-10-15-8-17-5-19-2-18 1-17 3-15 4-13 8-17 8-11 7-8 8-8 10-7 15-8 13-4 16-2 2-1v-23l2-28 5-36 7-30 10-28 8-18 8-15 11-16 8-10 9-10 12-12 16-12 15-9 16-8 19-7 26-6z" fill="#BBFBFF"/>
<path transform="translate(174,1337)" d="m0 0 1761 1v238h97l7 2 7 6 2 3v102l-8 9-2 1-59 1h-44l1 6-1 330-4 7-4 2-1 3h-1803l-9-9-1-5-1-334-102-1-6-4-4-6v-103l7-7 6-3h100v-238z" fill="#4B789F"/>
<path transform="translate(1926,1700)" d="m0 0 9 1 1 5-1 330-4 7-4 2-1 3h-1803l-9-9-1-5v-333z" fill="#4B78A0"/>
<path transform="translate(1671,108)" d="m0 0h92l8 2 6 5 3 8v177l-2 7-4 5-5 3-60 1-98-1h-54l1 144h284l13 2 10 4 11 8 8 8 6 10 5 13 1 7v484l-1 13-5 13-6 10-10 10-10 6-10 4-12 2h-283l-1-1-1-39-1-298-2-12-5-12-7-10-5-5-7-6-14-7-12-3h-18l-12 3-12 6-10 8-9 11-6 12-3 12-1 24-1 317h-291l-14-1-13-4-11-6-12-12-8-14-3-12-1-15v-471l2-16 5-12 6-9 5-6 11-8 10-5 8-2 12-1h295v-144h-207l-8-3-6-7-2-12v-148l1-24 4-7 6-4 3-1h358z" fill="#4C79A0"/>
<path transform="translate(533)" d="m0 0h80l30 7 18 6 14 8 19 12 11 4 14 3 24 6 20 8 14 8 12 9 10 9 9 9 12 17 8 15 7 16 8 26 4 23 3 34 2 26 1 31 16 2 16 5 13 7 12 9 11 11 9 13 8 15 6 19 2 12 1 13-2 22-4 15-5 13-7 13-9 12-13 13-14 9-14 6-15 4-7 1h-15l-13-2-5-1v7l-6 24-8 23-13 27-12 19-12 16-11 12-5 6-8 7-11 10-18 13-15 9-19 10-20 8-19 6-18 4-12 2 19 4 25 5 22 6 28 11 16 7 18 10 19 12 3 3-1 5-10 11h-2l-2 4-13 12-18 13-11 7-14 8-22 10-24 8-21 5-17 3-10 1h-36l-26-4-17-4-20-6-27-11-20-11-15-10-11-9-12-11-10-9-7-7-1-4 8-6 25-15 25-12 29-11 34-9 21-4 7-2-23-5-36-12-19-9-17-10-13-9-13-10-13-12-14-14-11-14-10-14-12-20-9-19-10-30-5-23v-3l-11 3-7 1h-15l-13-2-15-5-15-8-11-9-11-11-10-15-8-17-5-19-2-18 1-17 3-15 4-13 8-17 8-11 7-8 8-8 10-7 15-8 13-4 16-2 2-1v-23l2-28 5-36 7-30 10-28 8-18 8-15 11-16 8-10 9-10 12-12 16-12 15-9 16-8 19-7 26-6z" fill="#DE906F"/>
<path transform="translate(113,1575)" d="m0 0h1822l97 1 7 2 7 6 2 3v102l-8 9-2 1-59 1h-42l-6 1h-1818l-3-1-100-1-6-4-4-6v-103l7-7 6-3z" fill="#FE5852"/>
<path transform="translate(766,749)" d="m0 0 5 2 15 12 11 9 8 8 8 7 13 14 9 11 14 19 12 19 7 12 13 28 10 28 7 26 5 31 1 16 1 44v177l-1 1h-113l-526-1-1-1v-216l2-23 5-29 8-29 7-20 8-18 10-20 13-21 14-19 9-11 11-12 7-8 16-15 11-9 13-10 3 1 7 8 7 7 8 7 10 9 15 11 19 11 16 8 26 10 21 6 27 5 9 1h36l22-3 22-5 20-6 24-10 17-9 11-7 18-13 10-9 7-6 5-5 8-10z" fill="#5CD8FE"/>
<path transform="translate(652,148)" d="m0 0 10 3 6 4 8 7 6 9 4 12 5 11 4 13 4 18 3 20 2 28v157l-2 42-4 27-8 30-5 14-14 28-7 11-8 12-11 13-7 8-6 7-8 7-9 8-18 13-5 4-12 6-7 4-16 8-19 9-6 1v2l-3 2-9-2-30-10-19-9-17-10-13-9-13-10-13-12-14-14-11-14-10-14-12-20-9-19-10-30-5-23v-3l-11 3-7 1h-15l-13-2-15-5-15-8-11-9-11-11-10-15-8-17-5-19-2-18 1-17 3-15 4-13 8-17 8-11 7-8 8-8 10-7 15-8 13-4 16-2 3-1 2 13 3 21 5 19 7 14 7 6 7 3h14l12-6 10-10 7-10 12-23 9-24 8-30 4-12 7-11 9-8 11-5 19-5 30-6 40-10 30-10 25-10 23-12 16-9 4-2z" fill="#E8AD89"/>
<path transform="translate(1671,108)" d="m0 0h92l8 2 6 5 3 8v177l-2 7-4 5-5 3-60 1-98-1h-54v144l-19 1h-105v-145h-207l-8-3-6-7-2-12v-148l1-24 4-7 6-4 3-1h358z" fill="#BCFCFE"/>
<path transform="translate(533)" d="m0 0h80l30 7 18 6 14 8 19 12 11 4 14 3 24 6 20 8 14 8 12 9 10 9 9 9 12 17 8 15 7 16 8 26 4 23 3 34 2 26v37l-2 18-5 22-4 11-6 10-8 7-6 3h-15l-10-5-12-11-9-12-8-16-6-13-10-30-9-37-4-9-7-9-12-12-12-9v-2l-4-2-10-8-11-11-7-8-8-7-8-4-3-1h-11l-11 4-22 12-19 10-29 11-24 8-44 11-35 7-15 5-8 5-7 6-7 12-7 26-6 20-8 20-12 23-9 11-8 8-12 6h-14l-10-5-7-8-6-14-5-21-3-25-1-27 2-28 5-36 7-30 10-28 8-18 8-15 11-16 8-10 9-10 12-12 16-12 15-9 16-8 19-7 26-6z" fill="#7D4F38"/>
<path transform="translate(1755,459)" d="m0 0h87l13 2 10 4 11 8 8 8 6 10 5 13 1 7v484l-1 13-5 13-6 10-10 10-10 6-10 4-12 2h-105v-3h3v-2l9-7 8-8 7-10 4-9 2-14 1-19v-448l-1-30-3-9-7-12-6-8-7-6v-2l-12-3-1-2-2-1z" fill="#3B5D7B"/>
<path transform="translate(1486,659)" d="m0 0h18l12 3 14 7 10 8 9 12 5 11 2 6 1 9 1 298 1 40h-2v162l-8 1-64-1-25-1-16-2-6-5-2-1v5h-3l-1-158v-317l1-24 3-12 6-12 11-13 12-9 12-5z" fill="#CEFEFE"/>
<path transform="translate(766,749)" d="m0 0 5 2 15 12 11 9 8 8 8 7 13 14 9 11 14 19 12 19 7 12 13 28 10 28 7 26 5 31 1 16 1 44v177l-1 1h-113l-20-1-2-2h12l-1-188-2-36-3-28-5-25-6-21-5-15-9-22-10-20-11-18-8-12-9-12-4-4-1-4 20-15 14-10 12-13 5-5 8-10z" fill="#3BCBFC"/>
<path transform="translate(1926,1700)" d="m0 0 9 1 1 5-1 330-4 7-4 2-1 3h-115l-1-145 1-202z" fill="#3A5C7B"/>
<path transform="translate(533)" d="m0 0h80l30 7 18 6 14 8 19 12 11 4 14 3 24 6 20 8 14 8 12 9 10 9 9 9 12 17 8 15 7 16 8 26 4 23 3 34 2 26v37l-2 18-5 22-4 11-6 10-8 7-6 3h-15l-10-5-12-11-9-12-8-16-6-13-10-30-9-37-4-9-7-9-7-7-1-3-2-21-2-7-3-17-4-14-7-18-8-15-4-6v-2h-2l-7-11-20-20-12-8-10-6-14-6-9-3-4-2-10-2-13-4-19-7-36-17-10-6-5-5 1-2z" fill="#653F2D"/>
<path transform="translate(1430,1338)" d="m0 0h505v237h-124l-1-236-72 1-308-1z" fill="#3A5C7B"/>
<path transform="translate(545,689)" d="m0 0h14l1 2-5 1-1 4-5 1h-10l-2-1v2l10 3v2l9 3 28 11 25 12 11 6 18 11 5 3v2l5 2 13 10 11 9 15 14 15 15v2l3 1-17 9-25 10-24 7-27 5-10 1h-36l-26-4-17-4-20-6-27-11-20-11-15-10-11-9-12-11-10-9-7-7-1-4 8-6 25-15 25-12 29-11 34-9 21-4 7-2z" fill="#E8AE8A"/>
<path transform="translate(1683,109)" d="m0 0h39l49 1 6 5 3 8v177l-2 7-4 5-3 2h-114l-1-182v-13l-1-4-3-3v-2z" fill="#8BF4FE"/>
<path transform="translate(316,276)" d="m0 0 2 4 3 25 5 21 7 16 8 7 7 3 11 1v1h-12l-5-2-1 3 1 77 1 37 1 18-11 3-7 1h-15l-13-2-15-5-15-8-11-9-11-11-10-15-8-17-5-19-2-18 1-17 3-15 4-13 8-17 8-11 7-8 8-8 10-7 15-8 13-4 16-2z" fill="#DE906F"/>
<path transform="translate(1453,313)" d="m0 0h50l47 1 7 1v144l-19 1h-105v-141l2 2-1 2h2l1-5 4-3z" fill="#CEFEFE"/>
<path transform="translate(1942,1212)" d="m0 0h28l26 1 14 4 11 6 10 9 7 8 8 16 2 5v29l-6 14-9 13-7 7-11 7-11 4-11 2-11 1h-46v8h-1v-8h-97v-1l66-1-5-4 1-6 5-5 7-9 5-10 4-13 1-8v-10l-2-15-6-15-9-13-7-6-6-5-1-3 12-1z" fill="#8BF3FF"/>
<path transform="translate(207,1565)" d="m0 0h1576l17 2 7 3h3l1-2v6h-1666l-7-1-2-4 1-1 8-1 26-1z" fill="#3973A5"/>
<path transform="translate(572,933)" d="m0 0h130l12 2 12 6 7 8 4 9 1 7-2 10-7 10-9 6-10 3-8 1h-127l-16-2-9-4-8-9-4-11v-13l5-10 10-8 11-4z" fill="#FED771"/>
<path transform="translate(1749,1701)" d="m0 0h58l-2 3h-1682l-1 3-4 3h-2l-1 5h-1v-13z" fill="#3973A6"/>
<path transform="translate(133,1570)" d="m0 0m4 0 1 3 1673 1v1h-1698l1-3v2l3-1h12l1-2h3v2h2v-2z" fill="#4C79A0"/>
<path transform="translate(598,926)" d="m0 0h85l13 2 4 4h-128l4-2 2-2z" fill="#3BCBFC"/>
<path transform="translate(114,1515)" d="m0 0h1l2 16 2 4 2 10 1 6-1 6 1 3 5 4v2l3 1v2l4 1-5 3-4 1h-11l-1-4z" fill="#3973A6"/>
<path transform="translate(632,695)" d="m0 0 16 2 32 8 31 12 16 7 18 10 19 12-2 1-17-10-15-9-25-11-8-2-8-4-11-3-31-8-7-2-8-1z" fill="#85AABA"/>
<path transform="translate(1749,1701)" d="m0 0h58l-2 3-56-1z" fill="#3C6D98"/>
<path transform="translate(610,690)" d="m0 0h6l7 2 9 3v1h-16l-6-1v-3z" fill="#E9AE8A"/>
<path transform="translate(670,704)" d="m0 0 10 1 21 8 2 3-6-1-8-4-11-3-8-2z" fill="#DBBEA4"/>
<path transform="translate(707,38)" d="m0 0 17 3-4 4-4-2-4-1h-4z" fill="#7E5542"/>
<path transform="translate(594,170)" d="m0 0 2 1-3 3-10 4h-5l1-2 9-4z" fill="#6D4430"/>
<path transform="translate(743,47)" d="m0 0 5 1 11 4-4 3h-2l-3-3-7-2z" fill="#7E533D"/>
<path transform="translate(632,695)" d="m0 0 16 2 5 2 1 2-7-1-7-2-8-1z" fill="#E1C3A9"/>
<path transform="translate(686,709)" d="m0 0 7 1 9 4 1 2-6-1-8-4-3-1z" fill="#BDAFA3"/>
<path transform="translate(440,218)" d="m0 0 2 1-13 13v-3l6-7z" fill="#E98C70"/>
<path transform="translate(1430,1037)" d="m0 0h1v15h-3l1-11z" fill="#3A5C7B"/>
<path transform="translate(1429,1036)" d="m0 0 2 1-2 13-1 2-3-1z" fill="#3973A6"/>
<path transform="translate(693,33)" d="m0 0 10 4v2h-6v-2l-4-1z" fill="#77513F"/>
</svg>
