<?xml version="1.0" encoding="UTF-8"?>
<svg version="1.1" viewBox="0 0 2048 2048" width="512" height="512" xmlns="http://www.w3.org/2000/svg">
<path transform="translate(1512,559)" d="m0 0h33l24 3 24 6 24 9 19 10 14 9 12 9 10 9 8 7 9 9 9 11 10 14 9 15 11 23 8 24 5 24 2 19v80h153l8 3 7 8 3 8 10 77 18 140 22 171 14 109 18 140 13 103 1 11v24l-4 29-5 20-7 19-10 21-12 19-9 12-11 12-14 14-16 12-18 11-15 8-21 8-18 5-14 3-14 2-13 1h-317l-8-4-7-8-2-4-1-6h-46l-3 9-6 8-4 3-6 2h-1179l-7-3-5-4-4-6-2-8v-518h-152l-9-2-7-5-5-8-1-4v-10l6-12 10-15 11-17 15-23 32-49 13-20 15-23 17-26 21-32 9-14 17-26 10-15 7-8 6-4 4-1h921l1-11 5-36-9-3-7-6-3-5-1-4v-13l5-38 3-10 5-6 8-5 154-1 1-70 2-26 5-25 8-24 13-27 13-20 9-11 9-10 6-7 8-7 12-10 18-12 16-9 20-9 19-6 22-5zm9 46-20 2-24 6-20 8-13 7-12 8-14 11-17 17-12 16-12 21-6 15-6 20-3 17-1 14v73h335l1-1v-68l-1-18-3-17-6-21-8-18-10-17-12-16-11-12-14-12-15-10-14-8-19-8-22-6-12-2-13-1z" fill="#2B2938"/>
<path transform="translate(1512,559)" d="m0 0h33l24 3 24 6 24 9 19 10 14 9 12 9 10 9 8 7 9 9 9 11 10 14 9 15 11 23 8 24 5 24 2 19v80h153l8 3 7 8 3 8 10 77 18 140 22 171 14 109 18 140 13 103 1 11v24l-4 29-5 20-7 19-10 21-12 19-9 12-11 12-14 14-16 12-18 11-15 8-21 8-18 5-14 3-14 2-13 1h-317l-8-4-7-8-2-4-1-6-46-1-1-4v-511l1-1 154-1 10-4 6-7 3-9-1-10-6-11-24-36-15-23-13-20-10-15-12-19-8-12-17-26-13-20-32-49-11-17-16-24-6-7-8-3-255-1-2-1 2-17 4-29-9-3-7-6-3-5-1-4v-13l5-38 3-10 5-6 8-5 154-1 1-70 2-26 5-25 8-24 13-27 13-20 9-11 9-10 6-7 8-7 12-10 18-12 16-9 20-9 19-6 22-5zm9 46-20 2-24 6-20 8-13 7-12 8-14 11-17 17-12 16-12 21-6 15-6 20-3 17-1 14v73h335l1-1v-68l-1-18-3-17-6-21-8-18-10-17-12-16-11-12-14-12-15-10-14-8-19-8-22-6-12-2-13-1z" fill="#1890C7"/>
<path transform="translate(661,1080)" d="m0 0 5 4 11 18 10 15 13 20 19 29 13 20 10 15 9 14 11 17 17 26 11 17 8 10 9 4 5 1h406l163 1v492l-1 1h-719l-1-97v-541z" fill="#FDBF44"/>
<path transform="translate(960,217)" d="m0 0h20l25 2 25 4 28 7 25 9 24 11 21 12 20 14 11 9 13 11 21 21 9 11 13 17 14 22 13 25 10 25 7 23 5 22 3 21 1 13v39l-2 22-4 22-6 23-7 21-8 19-10 19-10 17-10 14-10 13-9 10-7 8-14 14-11 9-15 12-15 10-19 11-16 8-21 9-22 7-21 5-23 4-19 2h-41l-32-4-25-6-20-6-27-11-23-12-19-12-16-12-11-9-16-15-9-9-7-8-10-12-12-17-11-18-12-23-10-25-8-26-5-24-3-24-1-14v-20l2-27 5-29 7-26 9-24 8-18 11-20 14-21 10-13 12-14 7-8h2l2-4h2l1-3 8-7 14-12 18-13 16-10 18-10 17-8 28-10 23-6 22-4 17-2z" fill="#FE7246"/>
<path transform="translate(614,1080)" d="m0 0 2 1-1 702-1 1h-355l-1-1v-491l1-1 207-1 9-3 6-5 14-21 13-20 15-23 13-20 11-17 17-26 19-29 13-20 11-17 6-8z" fill="#E4AB3E"/>
<path transform="translate(1512,559)" d="m0 0h33l24 3 24 6 24 9 19 10 14 9 12 9 10 9 8 7 9 9 9 11 10 14 9 15 11 23 8 24 5 24 2 19v80h153l8 3 7 8 3 8 10 77 18 140 22 171 14 109 18 140 13 103 1 11v24l-4 29-5 20-7 19-10 21-12 19-9 12-11 12-14 14-16 12-18 11-15 8-21 8-18 5-14 3-14 2-13 1h-317l-8-4-7-8-2-4-1-11 3-8 6-7 8-4 309-1 26-2 18-4 18-6 17-8 15-9 16-13 15-15 11-15 8-13 8-18 5-15 4-18 2-21v-25h-469l-9-3-5-4-5-9-1-11 2-6 4-6 6-5 5-2 17-1h448l-11-87-10-77-14-110-10-77-18-140-17-131-5-39-1-6h-126v94l5 1 16 8 9 6 9 8 11 15 7 15 4 15 1 9v9l-3 18-6 15-9 15-14 14-11 7-12 6-18 5-16 1-19-3-13-5-14-8-11-9-10-12-8-14-5-15-2-10v-20l4-17 8-17 9-12 9-9 15-10 16-7 1-93-336-1v23l-3 10-6 7-8 4h-12l-8-4-7-8-2-6-1-15v-11h-126l-1 12-4 17-5 8-6 5-8 3h-6l-12-6-6-7-2-6v-13l5-38 3-10 5-6 8-5 154-1 1-70 2-26 5-25 8-24 13-27 13-20 9-11 9-10 6-7 8-7 12-10 18-12 16-9 20-9 19-6 22-5zm9 46-20 2-24 6-20 8-13 7-12 8-14 11-17 17-12 16-12 21-6 15-6 20-3 17-1 14v73h335l1-1v-68l-1-18-3-17-6-21-8-18-10-17-12-16-11-12-14-12-15-10-14-8-19-8-22-6-12-2-13-1z" fill="#2A2938"/>
<path transform="translate(681,1023)" d="m0 0h709l5 5 11 17 18 27 10 16 8 12 17 26 13 20 10 15 13 20 11 17 13 20 15 22 1 4-13 1h-696l-6-7-12-18-11-17-15-23-13-20-34-52-30-46-21-32-3-5z" fill="#FED384"/>
<path transform="translate(1473,1575)" d="m0 0h1l3 13 5 7 8 4 4 1h340l129 1 1 6v19l-2 21-5 22-8 21-10 18-10 14-11 12-11 11-16 12-22 12-18 7-14 4-19 3-18 1-309 1-8 4-6 8-3 10h-46l-1-3 1-6 6 2v5h19l2-1-1-2h8l1-3h2l1-8-1-21-2-5 1-5-1-4-2 4-2 2h-6l-1-4 2-4-1-4-2-5 1-24-1-5 1-4-1-3-1-17-1-6v-8l-2-10h-2v-2l5-2-1-6-4-3-2-4-4 1v5l2 6-1 9v15l-2 6v24l-1 7v23l-2 10 1 2h-2l-2 12-2 7 2 1-1 3h-2l1 4-2 3v-213h43z" fill="#47A7D4"/>
<path transform="translate(960,217)" d="m0 0h20l25 2 25 4 28 7 25 9 24 11 21 12 20 14 11 9 13 11 21 21 9 11 13 17 14 22 13 25 10 25 7 23 5 22 3 21 1 13v39l-2 22-4 22-6 23-7 21-8 19-10 19-10 17-10 14-10 13-9 10-7 8-14 14-11 9-15 12-15 10-19 11-16 8-21 9-22 7-21 5-23 4-19 2h-41l-32-4-25-6-20-6-27-11-23-12-19-12-16-12-11-9-16-15-9-9-7-8-10-12-12-17-11-18-12-23-10-25-8-26-5-24-3-24-1-14v-20l2-27 5-29 7-26 9-24 8-18 11-20 14-21 10-13 12-14 7-8h2l2-4h2l1-3 8-7 14-12 18-13 16-10 18-10 17-8 28-10 23-6 22-4 17-2zm-4 46-19 2-22 4-22 6-19 7-25 12-15 9-19 13-14 13-8 7-11 11-7 8-12 16-11 17-12 23-8 19-7 23-5 25-2 15v42l4 29 6 25 7 20 9 20 10 18 8 12 8 11 9 11 9 10 14 14 14 11 13 10 24 14 19 9 30 10 21 5 19 3 18 2h19l21-2 22-4 24-6 24-9 17-8 20-12 17-12 11-9 13-12 9-9 9-11 15-20 11-19 12-25 7-20 6-23 4-25 1-12v-29l-3-27-5-24-10-30-10-22-12-20-10-14-13-16-14-15-11-10-14-11-21-14-16-9-25-11-19-6-21-5-26-4-15-1z" fill="#2B2938"/>
<path transform="translate(249,1023)" d="m0 0h344l2 2-10 15-47 72-21 32-15 23-13 20-17 26-19 29-1 2-16 1h-329l-3-2 10-15 16-25 10-15 15-23 32-49 13-20 10-15 13-20 11-17 8-12z" fill="#FED384"/>
<path transform="translate(1172,936)" d="m0 0h12l10 1 187 1 35 1 16 2 7 4 9 9 10 15 11 17 9 14 10 15 13 20 12 18 4 7 16 24 17 26 9 14 10 15 11 17 13 20 8 12 11 17 10 15 7 11 16 24 6 10 9 14 5 10 2 11-2 8-6 9-10 9-10 3-35 1h-87l-21 1-11 2-9 6-4 2-3 10-1 13-1 36-1 68v66l1 16-1 21-1 6h-36v205h2l-1-7 4-16v-3l2-10v-22l1-9v-22l2-8v-18l1-5-2-5v-5l2-2 4 1 2 4 5 5-1 4-5 2v2h2l3 10v9l1 5 1 17 1 5-1 5 1 4-1 22 3 6-1 4-1 7 7-2 2-5 3 3-1 8 2 2v2l1 25-2 4-3 3-7 1 1 2-3 1h-23l4-1v-5l-5-1-2 4v-511l1-1 154-1 10-4 6-7 3-9-1-10-6-11-24-36-15-23-13-20-10-15-12-19-8-12-17-26-13-20-32-49-11-17-16-24-6-7-8-3-255-1-2-1 2-17 2-5h2v-8l4-6 5-3z" fill="#1584B9"/>
<path transform="translate(964,338)" d="m0 0h12l9 5 7 8 1 3v139h138l8 4 6 7 3 6v12l-4 8-8 6-5 2-8 1h-130v137l-3 7-4 5-8 5-4 1h-10l-6-3-6-5-4-7-1-5-1-135h-137l-8-5-7-8-2-6v-9l5-10 8-6 5-2h137v-136l3-8 8-8z" fill="#2A2938"/>
<path transform="translate(1712,1024)" d="m0 0h17l9 4 6 4 8 8 4 6 2 6v20l-3 7-3 6-5 6-13 8-7 2h-15l-11-4-10-8-7-11-3-10v-10l3-12 9-12 10-7z" fill="#FDFBFA"/>
<path transform="translate(1294,1237)" d="m0 0h17l42 1h81l42 1 4 1v2h26v1l-50 1h-536l-69-1v-1l51-1 15-2 24-1z" fill="#FFDE89"/>
<path transform="translate(1440,1650)" d="m0 0 4 1 2 4 5 5-1 4-5 2v2h2l3 10v9l1 5 1 17 1 5-1 5 1 4-1 22 3 6-1 4-1 7 7-2 2-5 3 3-1 8 2 2v2l1 25-2 4-3 3-7 1 1 2-3 1h-23l4-1v-5l-5-1-1-1v-9l1-7h2l-1-7 4-16v-3l2-10v-22l1-9v-22l2-8v-18l1-5-2-5v-5z" fill="#1991C8"/>
<path transform="translate(247,1025)" d="m0 0h23v1l-5 1-1 2-7 3-6 5-8 15-6 9-4 8-8 12-7 11h-2l-2 5-50 75-12 19-13 18-7 9-3 4h-2l-2 4-5 5-3 8-1 4h-10l1-4 7-11 16-25 10-15 15-23 32-49 13-20 10-15 13-20 11-17 8-12z" fill="#FED884"/>
<path transform="translate(1383,1024)" d="m0 0h9l7 10 11 17 17 26 13 20 19 29 13 20 10 15 13 20 11 17 13 20 15 22 1 4h-10l-2-2v-4-2l-2-1v-3h-2l-2-5-7-7v-2h-2l-2-5h-2l-6-9v-2h-2l-6-10v-2h-2l-4-7v-3h-2l-8-13-6-9v-2h-2l-8-13-10-15-11-17-8-12-7-11v-2h-2l-4-8v-2h-2v-2h-2l-3-7-7-11-6-10-4-8-4-5-9-6-4-2z" fill="#FDD783"/>
<path transform="translate(661,1080)" d="m0 0 5 4-1 2-2-2v274l-1 425h718v1h-719l-1-97v-541z" fill="#EC9A40"/>
<path transform="translate(780,1025)" d="m0 0h563v1l-79 1-13 1-4 1-17 1h-18l-60-1-16-1-15 1h-15l-42 1-47 1h-131l-56-2-13-1-4-1-33-1z" fill="#FFDE89"/>
<path transform="translate(682,1024)" d="m0 0 8 1v2l4 2 6 12 7 9 10 14 3 3 2 5 7 10 8 14 5 6 4 7 8 12 7 11 5 8 6 8 4 7 4 6 4 7 3 4 4 7 12 18 5 9 8 11 5 9 6 9 6 5 18 2 69 1v1h-95l-8-10-16-25-19-29-13-20-34-52-30-46-21-32-2-3z" fill="#FDD783"/>
<path transform="translate(249,1023)" d="m0 0h344l2 2-10 15-47 72-21 32-15 23-13 20-17 26-19 29-1 2-8-1 4-5 5-3h2v-5h2l1-6 11-16 5-9 8-11 4-7 3-3 5-10h2l2-5 4-7h2l2-5 4-7h2l2-5 4-7h2l1-4 7-11 10-16 7-10 5-7 4-7 3-3 1-3h2l1-4 8-13 1-2h2l2-5 6-8 2-6-1-6 1-2h-334z" fill="#FDBC72"/>
<path transform="translate(1429,1578)" d="m0 0h35l1 1v53l-2 7h2v5l-4-1-1-16-2-4-1-9-2-2-3 3h-9v2l-3-1-3-9-1-8-2-1-1-7-3-2 1-5h2l-2-4z" fill="#1991C8"/>
<path transform="translate(1361,886)" d="m0 0h333l3 1v93l-6 3-3-1 4-2 1-14 1-2 1-9v-66l-18-1h-134l-181-1v19h-1z" fill="#1584B9"/>
<path transform="translate(1887,1017)" d="m0 0h1l18 139 13 102 15 116v8h-1l-6-42-3-24-5-39-5-38-4-30-1-5-3-25-2-18-3-21-3-27-3-20-1-13-1-4-2-13-2-23-2-12z" fill="#1584B9"/>
<path transform="translate(1590,1600)" d="m0 0h244l129 1 1 6v19h-1l-2-22-27-1h-84l-260-2z" fill="#1688BE"/>
<path transform="translate(349,1239)" d="m0 0h41l3 2 31 1v1h-80l1-3z" fill="#FFDF8A"/>
<path transform="translate(1744,886)" d="m0 0h126v1l-125 1-1 40h-1v-41z" fill="#1584B9"/>
<path transform="translate(360,1025)" d="m0 0h89v1l-24 1-2 1h-25l-38-2z" fill="#FFDF8A"/>
<path transform="translate(502,1250)" d="m0 0h4l-2 5-6 11-5 8-4 4h-2l-1 4-3-1 3-5 5-9z" fill="#FBB643"/>
<path transform="translate(228,1240)" d="m0 0h33v1l5 1v1h-50v-1h12z" fill="#FFDF8A"/>
<path transform="translate(1461,1685)" d="m0 0 2 3v21l2 4-1 4-1 5v21h-3v-31z" fill="#1991C8"/>
<path transform="translate(455,1234)" d="m0 0 1 3-4 7-8-1 4-5z" fill="#FDD380"/>
<path transform="translate(1440,1638)" d="m0 0 3 1 2 5v2l-3 1-4-4z" fill="#1991C8"/>
<path transform="translate(502,1250)" d="m0 0h4l-2 5-6 5-3 3 2-5z" fill="#F7A143"/>
<path transform="translate(1530,1236)" d="m0 0 5 5v3h-10v-1l5-1z" fill="#F3AF5A"/>
</svg>
