<?xml version="1.0" encoding="UTF-8"?>
<svg version="1.1" viewBox="0 0 2048 2048" width="512" height="512" xmlns="http://www.w3.org/2000/svg">
<path transform="translate(154,86)" d="m0 0h1738l16 2 20 6 19 10 11 8 12 11 8 9 9 14 8 16 5 16 2 12 1 13v1292l-1 17-4 19-6 16-8 15-9 12-10 11-11 9-13 8-15 7-16 5-22 3h-583v193h279l14 2 12 4 11 6 10 8 7 7 9 14 5 12 3 12v21l-4 15-4 10-7 11-9 10-10 8-12 6-13 4-14 2h-1066l-17-3-13-5-12-8-8-7-8-10-6-10-5-14-2-10v-18l4-16 4-10 8-12 9-10 12-9 16-7 8-2 9-1h274v-193h-631l-22-3-18-6-17-9-12-9-12-11-9-11-10-16-7-17-4-14-2-17v-1308l3-19 6-18 10-19 11-14 12-12 15-11 16-8 14-5 13-3z" fill="#F5F5F5"/>
<path transform="translate(154,86)" d="m0 0h1738l16 2 20 6 19 10 11 8 12 11 8 9 9 14 8 16 5 16 2 12 1 13v1292l-1 17-4 19-6 16-8 15-9 12-10 11-11 9-13 8-15 7-16 5-22 3h-583v193h279l14 2 12 4 11 6 10 8 7 7 9 14 5 12 3 12v21l-4 15-4 10-7 11-9 10-10 8-12 6-13 4-14 2h-1066l-17-3-13-5-12-8-8-7-8-10-6-10-5-14-2-10v-18l4-16 4-10 8-12 9-10 12-9 16-7 8-2 9-1h274v-193h-631l-22-3-18-6-17-9-12-9-12-11-9-11-10-16-7-17-4-14-2-17v-1308l3-19 6-18 10-19 11-14 12-12 15-11 16-8 14-5 13-3zm57 151-9 6-6 9-1 1172 1 26 4 8 7 6 4 2 17 1h1591l17-1 8-4 7-9 1-4v-1195l-4-9-7-6-4-2z" fill="#F4F4F4"/>
<path transform="translate(154,86)" d="m0 0h1738l16 2 20 6 19 10 11 8 12 11 8 9 9 14 8 16 5 16 2 12 1 13v1292l-1 17-4 19-6 16-8 15-9 12-10 11-11 9-13 8-15 7-16 5-22 3h-583v193h279l14 2 12 4 11 6 10 8 7 7 9 14 5 12 3 12v21l-4 15-4 10-7 11-9 10-10 8-12 6-13 4-14 2h-1066l-17-3-13-5-12-8-8-7-8-10-6-10-5-14-2-10v-18l4-16 4-10 8-12 9-10 12-9 16-7 8-2 9-1h274v-193h-631l-22-3-18-6-17-9-12-9-12-11-9-11-10-16-7-17-4-14-2-17v-1308l3-19 6-18 10-19 11-14 12-12 15-11 16-8 14-5 13-3zm8 30-18 2-15 5-16 9-12 11-9 10-8 13-6 16-2 11-1 23v1246l1 46 3 15 5 13 6 11 9 11 8 8 13 9 15 7 15 4 10 1h69l655-1h380l536 1h88l14-2 16-5 15-8 13-11 9-10 8-13 6-15 3-16v-1312l-3-15-5-13-8-14-11-12-9-8-17-10-15-5-18-2z" fill="#030304"/>
<path transform="translate(485,1088)" d="m0 0h1078l17 3 12 5 14 10 10 11 7 12 4 11 2 12v155l-3 16-5 12-9 13-8 8-10 7-11 5-15 4h-1087l-14-3-16-8-8-6-7-6-9-13-6-14-2-9-1-35v-111l1-20 3-11 4-10 8-12 12-12 14-8 11-4z" fill="#468CF8"/>
<path transform="translate(999,328)" d="m0 0h47l27 3 25 5 21 6 23 8 20 9 20 11 19 12 21 16 14 12 22 22 9 11 10 13 12 18 12 21 11 23 10 27 7 26 4 22 3 28v39l-3 28-5 25-7 25-7 19-8 18-8 16-10 17-11 16-14 18-9 11-20 20-11 9-15 12-20 13-21 12-19 9-21 8-15 5-29 7-26 4-14 1h-39l-22-2-27-5-23-6-25-9-18-8-23-12-19-12-16-12-10-8-13-12-20-20-15-20-8-11-12-19-14-27-10-25-5-15-6-23-5-30-2-23v-27l3-32 5-26 7-25 8-22 12-26 12-21 11-16 9-12 9-11 9-10 19-19 11-9 18-14 17-11 25-14 23-10 22-8 27-7 23-4z" fill="#030405"/>
<path transform="translate(216,206)" d="m0 0h1616l13 2 10 4 11 8 8 9 6 12 2 7 1 18v1164l-1 23-4 13-6 10-8 9-11 7-12 4-9 1h-1617l-14-3-14-7-10-9-6-9-4-11-1-5-1-14v-1179l2-16 4-10 9-12 8-7 12-6 7-2zm-5 31-9 6-6 9-1 1172 1 26 4 8 7 6 4 2 17 1h1591l17-1 8-4 7-9 1-4v-1195l-4-9-7-6-4-2z" fill="#030405"/>
<path transform="translate(1e3 358)" d="m0 0h34l21 2 28 5 25 7 19 7 16 7 22 12 15 10 16 12 10 9 8 7 16 16 9 11 10 13 11 17 10 18 9 19 6 15 9 31 4 21 3 25v34l-3 27-5 26-8 26-9 23-10 19-11 18-9 14-3-1-7-11-13-18-10-11-7-8-14-14-14-11-15-11-15-9-23-12-26-10-13-4 1-3 9-7 6-5 7-8 10-14 8-16 4-11 4-15 2-17-1-18-3-16-5-15-8-16-8-12-11-12-8-8-13-9-15-8-14-5-11-3-18-2h-11l-17 2-15 4-13 5-11 6-14 10-13 12-9 11-8 13-6 13-6 20-2 16v16l2 16 5 18 8 17 8 12 12 14 10 9 7 6-1 2-17 5-24 10-19 10-19 12-14 11-14 12-17 17-9 11-10 13-11 17-3-1-14-22-10-18-8-17-8-21-7-25-5-27-2-18v-42l4-29 6-26 8-24 11-25 9-17 9-14 13-18 13-15 22-22 11-9 16-12 18-11 18-10 23-10 24-8 26-6 20-3z" fill="#468CF8"/>
<path transform="translate(514,1840)" d="m0 0h1050l25 1 9 3 11 7 8 9 6 12 2 7v14l-4 12-7 10-5 6-11 7-9 3-10 1h-1061l-11-2-12-6-9-8-7-11-3-8-1-12 2-12 4-10 7-9 10-8 11-5z" fill="#304055"/>
<path transform="translate(820,1618)" d="m0 0h454v190l-2 1h-452z" fill="#B8BAB8"/>
<path transform="translate(485,1088)" d="m0 0h1078l17 3 12 5 14 10 10 11 7 12 4 11 2 12v155l-3 16-5 12-9 13-8 8-10 7-11 5-15 4h-1087l-14-3-16-8-8-6-7-6-9-13-6-14-2-9-1-35v-111l1-20 3-11 4-10 8-12 12-12 14-8 11-4zm2 30-13 3-11 7-8 9-4 8-2 7v156l3 10 7 10 7 7 10 5 8 2h1079l13-4 11-8 7-10 4-9 1-6v-148l-2-10-6-12-6-7-9-6-10-3-20-1z" fill="#030406"/>
<path transform="translate(1e3 711)" d="m0 0h39l24 3 24 6 20 7 16 7 21 12 14 10 10 8 10 9 8 7v2h2l7 8 12 15 10 15 7 12-1 5-5 5-13 12-14 11-15 11-24 14-21 10-24 9-21 6-20 4-24 3h-45l-23-3-24-5-26-8-24-10-23-12-24-16-13-10-10-9-8-7-6-6 1-5 6-11 11-16 13-16 12-13 11-10 17-13 19-12 22-11 24-9 25-6z" fill="#F5F5F5"/>
<path transform="translate(1014,499)" d="m0 0h14l15 2 13 4 14 7 13 10 7 7 8 11 8 16 4 13 2 11v16l-2 14-5 15-7 13-7 9-8 9-10 8-17 9-13 4-9 2h-22l-15-3-14-5-15-9-12-11-8-9-8-14-5-12-3-15v-25l4-17 8-17 8-11 6-7 11-9 14-8 13-5 9-2z" fill="#F5F5F5"/>
<path transform="translate(817,1177)" d="m0 0h7l7 4 4 7 1 4v22l16-10 7-3 8 1 6 4 4 7v7l-4 7-8 6-12 7-1 2 6 2 14 9 4 5 1 3v7l-4 7-5 4-8 1-10-4-12-7-3-1 1 4v17l-3 8-5 5-4 2-9-1-6-4-4-7-1-24-17 10-6 2-7-1-6-4-4-5-1-8 5-8 5-4 14-8h2l-3-3-17-11-5-6-1-8 3-6 5-5 6-2 7 1 12 6 8 5 1-24 3-6 6-5z" fill="#020304"/>
<path transform="translate(1427,1177)" d="m0 0h7l8 5 3 5 1 4 1 22 17-10 5-2 9 1 7 6 3 9-2 7-9 8-10 6-4 3 17 10 6 7 2 7-3 8-7 6-8 1-9-4-15-8v22l-3 7-5 5-4 2-9-1-6-4-3-5-1-4v-22l-11 6-10 5-7 1-8-4-4-5-1-3v-7l3-6 9-7 11-6h2l-4-4-16-10-4-5-1-3v-7l3-6 5-4 5-2 8 1 19 11 1-3v-20l4-8z" fill="#030304"/>
<path transform="translate(1224,1177)" d="m0 0h7l6 4 4 5 2 7v20l9-5 14-7 8 1 6 4 4 7v8l-6 8-18 11-1 2 6 2 11 7 5 5 3 5v7l-6 9-6 3-8-1-22-11 1 5v16l-3 8-7 6-2 1h-7l-9-6-3-6v-24l-6 3-12 7-6 2-7-1-6-4-4-5-1-7 3-7 8-7 12-7h3l-3-3-16-10-6-7-1-6 2-7 8-7 8-1 16 8 7 4 1-24 3-6 6-5z" fill="#020304"/>
<path transform="translate(1020,1177)" d="m0 0h7l6 3 4 5 2 5 1 20-1 4 13-8 8-4 8-1 6 3 6 7v11l-7 8-16 10-1 2 6 2 13 9 5 6v10l-4 6-5 4-8 1-17-8-7-4v24l-5 8-4 3-9 1-6-3-5-5-2-7v-21l-11 6-12 6-8-1-8-6-2-5v-7l4-6 8-7 13-7-21-14-4-7v-8l6-8 7-3 8 1 16 9 5 3-1-20 2-9 5-5z" fill="#020304"/>
<path transform="translate(614,1177)" d="m0 0 9 1 6 5 3 6 1 23h3l14-9 6-2 8 1 6 4 4 8-1 8-3 5-10 7-10 6-1 2 6 2 15 10 4 8-1 7-3 5-6 5-2 1-9-1-15-8-6-3v24l-5 8-4 3-9 1-8-5-4-6v-26l-17 10-8 3-7-1-7-5-3-6 1-9 7-8 13-8 4-2-21-14-4-7v-7l5-8 8-4 8 1 18 10 3 2v-26l3-5 6-5z" fill="#020304"/>
<path transform="translate(821,1634)" d="m0 0h1l1 18 2 4-1 5v99l-1 8-1 11h-1z" fill="#F6F6F6"/>
<path transform="translate(1030,675)" d="m0 0 13 1-4 2-5 1h-22l-7-1v-1h25z" fill="#B8BAB8"/>
<path transform="translate(820,1793)" d="m0 0 2 4 2 9h5l-3 2-6 1z" fill="#F3F3F3"/>
<path transform="translate(820,1618)" d="m0 0 6 1-2 7-3-1z" fill="#F6F6F6"/>
</svg>
