<?xml version="1.0" encoding="UTF-8"?>
<svg version="1.1" viewBox="0 0 2048 2048" width="512" height="512" xmlns="http://www.w3.org/2000/svg">
<path transform="translate(855)" d="m0 0h1170l11 7 7 7 5 10v2e3l-7 11-8 7-10 5h-1167l-11-6-7-7-5-10-1-4v-741h-377l3 20 6 46 3 13 11 23 10 19 45 90 10 19 18 36 10 19 13 26 7 17 2 13 8 187 7 167v17l-2 12-5 12-7 11-10 10-11 7-8 4h-44l-8-5-11-8-10-10-8-14-4-15-28-194-19-133-2-9-12-19-11-17-32-50-14-22-16-25-9-14-16-25-9-14-1-1-70-1 7 19 19 54 17 48 16 45 4 16v21l-4 16-8 16-13 24-12 21-16 29-25 45-14 25-15 27-13 23-55 99-13 22-9 10-10 7-13 6-11 3h-18l-16-5-10-5-11-9-8-10-7-14-3-10v-24l8-20 13-29 19-43 13-29 48-108 19-43 14-31-1-6-20-46-15-34-13-30-17-39-18-41-11-28-4-14-4-21-4-42-4-72-8-187-6-148v-37l2-19 5-23 7-20 7-16 9-16 10-14 8-10 11-12 14-13 15-11 15-9 16-8 15-6 21-6 16-3 22-2 25 1 20 3 22 6 20 8 21 11 17 12 11 9 9 8 2 3 3 1v-34l3-9 4-7 7-6 8-4 4-1h454v-711l4-10 7-8zm41 64v384h597l3-2-9-4-8-7-4-7-2-8v-202l4-11 6-7 8-5 6-2h459l10 3 9 6 5 8 3 5h1v-151zm1086 360-3 9-6 7-9 4-4 1v2l4 1h17l3-1v-20zm-1086 88v480h149l3-2-10-4-8-8-4-9-1-5v-330l4-11 6-7 11-6 4-1h329l9 2 8 5 3 1 7 14 1 7v318l-1 13-5 10-3 3v2l-4 2-10 3v2l4 1h201l3-2-9-4-8-7-4-7-2-8v-202l4-11 6-7 8-5 6-2h202l9 2 10 6 6 9 2 5 1 7v190l-1 13-5 10-3 3v2l-4 2-10 3v2l4 1h180v-480zm-688 283-19 3-21 7-16 8-14 10-13 12-12 15-10 17-8 20-4 19-1 13v10l2 17 5 19 7 17 10 16 9 11 12 12 20 15 14 10 126 91 34 24 21 14h2v-36l-9-7-17-12-18-13-17-12-72-52-14-10-18-13-14-10-12-9-10-9-7-8-8-13-5-11-4-13-2-13v-16l3-17 6-16 8-14 11-13 12-10 14-8 16-6 11-2h29l16 4 12 5 12 7 11 9 17 16 25 25 8 7 14 14h2v-46l-24-24-8-7-11-10-11-9-12-9-17-9-21-7-19-3zm688 261v480h85l3-2-10-4-4-2-2-4-4-5-3-10v-204l4-10 6-7 14-7h458l12 3 8 6 6 10 2 10v190l-1 13-5 10-3 3v2l-4 2-10 3v2l4 1h532v-480zm0 544v384h694l2-2-9-4-8-7-5-10-1-5v-202l4-11 6-7 8-5 6-2h202l9 2 7 4h2v2l5 5 4 9 1 7v190l-1 13-5 10-3 3v2l-4 2-10 3v2l3 1h181v-384z" fill="#B4DAFA"/>
<path transform="translate(202,735)" d="m0 0 25 1 20 3 22 6 20 8 21 11 17 12 11 9 9 8 5 5v75l-7-6-17-17-8-7-11-10-11-9-12-9-17-9-21-7-19-3h-21l-19 3-21 7-16 8-14 10-13 12-11 14-10 17-8 20-4 19-1 13v10l2 17 5 19 7 17 10 16 9 11 11 11 20 15 14 10 126 91 34 24 23 15v24l1 49 2 13 6 10 10 6 5 2 77 1 2 1 2 12 7 53 3 13 11 23 10 19 45 90 10 19 18 36 10 19 13 26 7 17 2 13 8 187 7 167v17l-2 12-5 12-7 11-10 10-11 7-8 4h-44l-8-5-11-8-10-10-8-14-4-15-28-194-19-133-2-9-12-19-11-17-32-50-14-22-16-25-9-14-16-25-9-14-1-1-70-1 7 19 19 54 17 48 16 45 4 16v21l-4 16-8 16-13 24-12 21-16 29-25 45-14 25-15 27-13 23-55 99-13 22-9 10-10 7-13 6-11 3h-18l-16-5-10-5-11-9-8-10-7-14-3-10v-24l8-20 13-29 19-43 13-29 48-108 19-43 14-31-1-6-20-46-15-34-13-30-17-39-18-41-11-28-4-14-4-21-4-42-4-72-8-187-6-148v-37l2-19 5-23 7-20 7-16 9-16 10-14 8-10 11-12 14-13 15-11 15-9 16-8 15-6 21-6 16-3z" fill="#3077F0"/>
<path transform="translate(378,736)" d="m0 0h455l12 4 8 5 7 8 3 8v460l-1 36-3 8-8 8-8 4-10 3-380 1-77-1-12-6-5-5-5-8-2-13-1-49v-60l-11-8-18-13-17-12-54-39-14-10-18-13-14-10-18-13-14-10-12-9-10-9-8-9-8-13-5-11-4-13-2-13v-16l3-17 6-16 8-14 11-13 10-9 13-8 11-5 14-4 6-1h29l16 4 12 5 12 7 11 9 17 16 25 25 8 7 14 14 2 1v-121l-2-1h2v-34l3-9 4-7 7-6 8-4z" fill="#FACE71"/>
<path transform="translate(1050,608)" d="m0 0h329l9 2 8 5 5 5 5 8 2 10v318l-1 13-5 10-4 5-7 4-7 1v2l4 1h-343v-2l-8-4-8-8-4-9-1-5v-330l4-11 7-8 11-6z" fill="#FACD6F"/>
<path transform="translate(985,1280)" d="m0 0h458l12 3 9 7 6 10 2 10v190l-1 13-5 10-4 5-7 4-7 1v2l4 1-55 1-416-1v-2l-8-4-5-5-5-6-3-10v-204l4-10 7-8z" fill="#FACD6F"/>
<path transform="translate(1497,192)" d="m0 0h459l10 3 9 6 6 9 3 6-1 208-3 9-7 8-9 4h-4v2l4 1h-471v-2l-8-4-8-8-4-9-1-5v-202l4-11 7-8 8-5z" fill="#FACD6F"/>
<path transform="translate(176,288)" d="m0 0h32l22 3 23 6 20 8 19 10 16 11 13 11 7 6 7 8 8 9 12 17 3 5 11 3 143 25 13 4 8 6 6 7 4 9 1 4v11l-4 11-8 10-8 5-7 2-10 1h-123v10l-2 20-5 22-7 21-11 23-12 18-9 11-9 10-10 10-17 13-16 10-23 11-18 6-22 5-17 2h-29l-23-3-19-5-19-7-17-8-17-11-13-10-13-12-8-8-9-11-11-16-11-20-8-21-6-23-3-14v-52l8-29 8-20 11-21 8-12 11-14 11-12 13-12 15-11 15-9 16-8 19-7 25-6z" fill="#3077F0"/>
<path transform="translate(206,831)" d="m0 0h29l16 4 12 5 12 7 11 9 17 16 25 25 8 7 14 14 5 4 7 8 7 7 8 7 16 16 4 3v2l4 2 17 17 6 5 26 26 12 6 55 15 30 8 147 40 27 8 12 5 12 9 8 9 8 16 4 16v13l-3 13-8 16-9 10-8 7-16 8-7 2h-21l-39-6-242-42-21-5-17-8-18-12-4-2-5-5-14-10-18-13-17-12-72-52-17-12-19-14-17-12-12-9-10-9-8-9-8-13-5-11-4-13-2-13v-16l3-17 6-16 8-14 11-13 10-9 13-8 11-5 14-4z" fill="#3077F0"/>
<path transform="translate(1593,1728)" d="m0 0h202l9 2 9 5v2l3 1 6 10 2 10v190l-1 13-5 10-4 5-7 4-7 1v2l3 1-39 1h-175v-3l-8-4-8-8-4-9-1-5v-202l4-11 7-8 8-5z" fill="#FACD6F"/>
<path transform="translate(1593,736)" d="m0 0h202l9 2 10 6 6 8 3 7 1 7v190l-1 13-5 10-4 5-7 4-7 1v2l4 1h-215v-2l-8-4-8-8-4-9-1-5v-202l4-11 7-8 8-5z" fill="#FACD6F"/>
<path transform="translate(0,480)" d="m0 0h170l214 1-1 22-5 26-8 24-11 23-12 18-9 11-9 10-10 10-17 13-16 10-23 11-18 6-22 5-17 2h-29l-23-3-19-5-19-7-17-8-17-11-13-10-13-12-8-8-9-11-11-16-11-20-8-21-6-23-3-14z" fill="#86B4F9"/>
<path transform="translate(543,736)" d="m0 0h227v1h-98v126l-1 1h-98l-27-1-1-1z" fill="#EC7331"/>
<path transform="translate(1151,1280)" d="m0 0h183v1h-54v94l-1 1h-94l-32-1-1-3z" fill="#EB7332"/>
<path transform="translate(1151,608)" d="m0 0h154v1h-25v94l-1 1h-97l-28-1-2-2z" fill="#ED7331"/>
<path transform="translate(1663,192)" d="m0 0h138v1h-9v94l-1 1h-92l-33-1-1-1-1-17z" fill="#ED7331"/>
<path transform="translate(1663,736)" d="m0 0h85v1h-20v19l-1 43h-61l-2-2z" fill="#ED7331"/>
<path transform="translate(1666,1760)" d="m0 0h60l1 1 1 15-1 47h-61l-1-1v-61z" fill="#ED7331"/>
<path transform="translate(49,351)" d="m0 0h10l14 2 10 5 7 7 5 10 1 4v9l-4 11-6 8-9 6-8 2-37 1h-21l3-9 10-21 11-17 11-14z" fill="#86B4F9"/>
</svg>
